<svg width="24" height="24" viewBox="0 0 24 24" fill="none" xmlns="http://www.w3.org/2000/svg">
<path d="M9.07734 22.5C8.53828 22.5 8.00391 22.2984 7.59609 21.8906L2.11172 16.4062C1.29609 15.5859 1.29609 14.2547 2.11172 13.4391L13.6242 1.91719C13.8961 1.65 14.2523 1.5 14.632 1.5H20.407C20.9648 1.50469 21.4898 1.725 21.8836 2.11875C22.2773 2.51719 22.493 3.04219 22.4883 3.6V9.36094C22.4883 9.74062 22.343 10.0969 22.0758 10.3687L10.5633 21.8859C10.1508 22.2937 9.61641 22.5 9.07734 22.5ZM14.6648 3L3.17109 14.4938C2.94141 14.7281 2.94141 15.1078 3.17109 15.3422L8.65547 20.8266C8.88984 21.0562 9.26953 21.0562 9.50391 20.8266L20.993 9.3375V3.6C20.993 3.26719 20.7305 3 20.4023 3H20.3977H14.6648Z" fill="#21272A"/>
<path d="M17.9922 7.5C17.1625 7.5 16.4922 6.82969 16.4922 6C16.4922 5.17031 17.1625 4.5 17.9922 4.5C18.8219 4.5 19.4922 5.17031 19.4922 6C19.4922 6.82969 18.8219 7.5 17.9922 7.5Z" fill="#21272A"/>
</svg>
